<?xml version="1.0" encoding="utf-8"?>
<!-- Generator: Adobe Illustrator 17.1.0, SVG Export Plug-In . SVG Version: 6.00 Build 0)  -->
<!DOCTYPE svg PUBLIC "-//W3C//DTD SVG 1.1//EN" "http://www.w3.org/Graphics/SVG/1.1/DTD/svg11.dtd">
<svg version="1.1" id="Capa_1" xmlns="http://www.w3.org/2000/svg" xmlns:xlink="http://www.w3.org/1999/xlink" x="0px" y="0px"
	 width="254.8px" height="164.3px" viewBox="0 0 254.8 164.3" enable-background="new 0 0 254.8 164.3" xml:space="preserve">
<path fill="#19333E" d="M78.1,121.5v8.2H58.3v8.5h15.8v7.9H58.3v8.6h19.8v8.2h-29v-41.3H78.1z"/>
<path fill="#19333E" d="M113.9,121.5h8.9v41.3h-8.9l-19-25.9v25.9H86v-41.3h8.3l19.6,26.6V121.5z"/>
<path fill="#19333E" d="M201,157.3c-4,3.9-9,5.9-14.9,5.9c-5.9,0-10.9-2-14.9-5.9c-4-3.9-6.1-8.8-6.1-14.7c0-5.9,2-10.8,6.1-14.7
	c4-3.9,9-5.9,14.9-5.9c5.9,0,10.9,2,14.9,5.9c4,3.9,6.1,8.8,6.1,14.7C207.1,148.5,205,153.4,201,157.3z M198,142.6
	c0-3.6-1.1-6.6-3.4-9.1c-2.3-2.5-5.1-3.8-8.4-3.8c-3.3,0-6.1,1.3-8.4,3.8c-2.3,2.5-3.4,5.5-3.4,9.1c0,3.6,1.1,6.6,3.4,9.1
	c2.3,2.5,5.1,3.7,8.4,3.7c3.3,0,6.1-1.2,8.4-3.7C196.8,149.2,198,146.2,198,142.6z"/>
<path fill="#19333E" d="M150.1,129.7v33.1h-8.9v-33.1h-11.3v-8.2h31.5v8.2H150.1z"/>
<circle fill="#031F2C" cx="127.7" cy="63.3" r="34.4"/>
<g>
	<path fill="#19333E" d="M127.7,63.3H93.4c0,0,0,0,0,0c0,9.5,3.8,18.1,10.1,24.3c6.2,6.2,14.8,10.1,24.3,10.1V63.3z"/>
	<path fill="#445962" d="M127.7,28.9v34.4h34.4c0-9.5-3.9-18.1-10.1-24.3C145.8,32.7,137.2,28.9,127.7,28.9
		C127.7,28.9,127.7,28.9,127.7,28.9z"/>
</g>
<path fill="#E4AC3B" d="M148.8,63.3h-42.2c0-11.6,9.4-21.1,21.1-21.1S148.8,51.6,148.8,63.3z"/>
<g>
	<path fill="#DC9300" d="M148.8,63.3c0-11.6-9.4-21.1-21.1-21.1c0,0,0,0,0,0v21.1H148.8z"/>
</g>
</svg>
