<?xml version="1.0" encoding="utf-8"?>
<!-- Generator: Adobe Illustrator 16.0.0, SVG Export Plug-In . SVG Version: 6.00 Build 0)  -->
<!DOCTYPE svg PUBLIC "-//W3C//DTD SVG 1.1//EN" "http://www.w3.org/Graphics/SVG/1.1/DTD/svg11.dtd">
<svg version="1.1" id="Capa_1" xmlns="http://www.w3.org/2000/svg" xmlns:xlink="http://www.w3.org/1999/xlink" x="0px" y="0px"
	 width="101.683px" height="23.986px" viewBox="0 0 101.683 23.986" enable-background="new 0 0 101.683 23.986"
	 xml:space="preserve">
<path fill="#19333E" d="M45.841,8.208c0,3.708-1.468,6.102-4.403,7.182l5.859,8.275h-6.355l-5.13-7.381h-3.574v7.381h-5.165V0.53
	h8.772c3.596,0,6.162,0.608,7.695,1.82C45.074,3.564,45.841,5.517,45.841,8.208z M39.618,10.957c0.64-0.574,0.961-1.484,0.961-2.732
	c0-1.246-0.333-2.102-0.993-2.564c-0.663-0.463-1.822-0.694-3.477-0.694h-3.871v6.851h3.773
	C37.776,11.816,38.978,11.53,39.618,10.957z"/>
<path fill="#19333E" d="M70.796,0.53h5.164v23.136h-5.164V0.53z"/>
<path fill="#E2A62C" d="M9.572,0.53h5.164L5.164,23.666H0L9.572,0.53z"/>
<polygon fill="#19333E" points="48.754,0.53 48.754,5.693 55.308,5.693 55.308,23.666 60.47,23.666 60.47,5.693 67.024,5.693 
	67.024,0.53 "/>
<path fill="#19333E" d="M92.623,19.066c-3.905,0-7.072-3.166-7.072-7.073c0-3.906,3.167-7.073,7.072-7.073
	c2.483,0,4.665,1.281,5.928,3.216l3.132-3.552C99.485,1.795,96.081,0,92.255,0c-6.624,0-11.992,5.369-11.992,11.993
	c0,6.624,5.368,11.993,11.992,11.993c3.703,0,7.014-1.682,9.214-4.318l-3.114-3.533C97.069,17.909,94.981,19.066,92.623,19.066z"/>
<polygon fill="#19333E" points="24.393,23.666 19.229,23.666 9.657,0.53 14.821,0.53 "/>
</svg>
