<?xml version="1.0" encoding="utf-8"?>
<!-- Generator: Adobe Illustrator 17.1.0, SVG Export Plug-In . SVG Version: 6.00 Build 0)  -->
<!DOCTYPE svg PUBLIC "-//W3C//DTD SVG 1.1//EN" "http://www.w3.org/Graphics/SVG/1.1/DTD/svg11.dtd">
<svg version="1.1" id="Capa_1" xmlns="http://www.w3.org/2000/svg" xmlns:xlink="http://www.w3.org/1999/xlink" x="0px" y="0px"
	 width="90.8px" height="90.8px" viewBox="0 0 90.8 90.8" enable-background="new 0 0 90.8 90.8" xml:space="preserve">
<circle fill="#031F2C" cx="45.4" cy="45.4" r="40.2"/>
<g>
	<path fill="#19333E" d="M45.4,45.4H5.3c0,0,0,0,0,0c0,11.1,4.5,21.1,11.8,28.4c7.3,7.3,17.3,11.8,28.4,11.8V45.4z"/>
	<path fill="#445962" d="M45.4,5.2v40.1h40.2c0-11.1-4.5-21.1-11.8-28.4C66.6,9.7,56.5,5.2,45.4,5.2C45.4,5.2,45.4,5.2,45.4,5.2z"/>
</g>
<path fill="#E4AC3B" d="M70.1,45.4H20.8c0-13.6,11-24.6,24.6-24.6S70.1,31.8,70.1,45.4z"/>
<g>
	<path fill="#DC9300" d="M70.1,45.4c0-13.6-11-24.6-24.6-24.6c0,0,0,0-0.1,0v24.6H70.1z"/>
</g>
</svg>
