<?xml version="1.0" encoding="utf-8"?>
<!-- Generator: Adobe Illustrator 17.1.0, SVG Export Plug-In . SVG Version: 6.00 Build 0)  -->
<!DOCTYPE svg PUBLIC "-//W3C//DTD SVG 1.1//EN" "http://www.w3.org/Graphics/SVG/1.1/DTD/svg11.dtd">
<svg version="1.1" id="Capa_1" xmlns="http://www.w3.org/2000/svg" xmlns:xlink="http://www.w3.org/1999/xlink" x="0px" y="0px"
	 width="276.8px" height="90.8px" viewBox="0 0 276.8 90.8" enable-background="new 0 0 276.8 90.8" xml:space="preserve">
<path fill="#19333E" d="M133.4,24.7v8.2h-19.8v8.5h15.8v7.9h-15.8v8.6h19.8V66h-29V24.7H133.4z"/>
<path fill="#19333E" d="M169.2,24.7h8.9V66h-8.9l-19-25.9V66h-8.9V24.7h8.3l19.6,26.6V24.7z"/>
<path fill="#19333E" d="M256.3,60.5c-4,3.9-9,5.9-14.9,5.9c-5.9,0-10.9-2-14.9-5.9c-4-3.9-6.1-8.8-6.1-14.7c0-5.9,2-10.8,6.1-14.7
	c4-3.9,9-5.9,14.9-5.9c5.9,0,10.9,2,14.9,5.9c4,3.9,6.1,8.8,6.1,14.7C262.4,51.7,260.3,56.6,256.3,60.5z M253.3,45.8
	c0-3.6-1.1-6.6-3.4-9.1c-2.3-2.5-5.1-3.8-8.4-3.8c-3.3,0-6.1,1.3-8.4,3.8c-2.3,2.5-3.4,5.5-3.4,9.1c0,3.6,1.1,6.6,3.4,9.1
	c2.3,2.5,5.1,3.7,8.4,3.7c3.3,0,6.1-1.2,8.4-3.7C252.1,52.4,253.3,49.4,253.3,45.8z"/>
<path fill="#19333E" d="M205.4,32.9V66h-8.9V32.9h-11.3v-8.2h31.5v8.2H205.4z"/>
<circle fill="#031F2C" cx="49.4" cy="45.5" r="34.4"/>
<g>
	<path fill="#19333E" d="M49.4,45.5H15c0,0,0,0,0,0C15,55,18.8,63.6,25,69.8c6.2,6.2,14.8,10.1,24.3,10.1V45.5z"/>
	<path fill="#445962" d="M49.3,11.1v34.4h34.4c0-9.5-3.9-18.1-10.1-24.3C67.4,15,58.9,11.1,49.3,11.1C49.4,11.1,49.3,11.1,49.3,11.1
		z"/>
</g>
<path fill="#E4AC3B" d="M70.4,45.5H28.3c0-11.6,9.4-21.1,21.1-21.1S70.4,33.9,70.4,45.5z"/>
<g>
	<path fill="#DC9300" d="M70.4,45.5c0-11.6-9.4-21.1-21.1-21.1c0,0,0,0,0,0v21.1H70.4z"/>
</g>
</svg>
