<?xml version="1.0" encoding="utf-8"?>
<!-- Generator: Adobe Illustrator 15.0.0, SVG Export Plug-In . SVG Version: 6.00 Build 0)  -->
<!DOCTYPE svg PUBLIC "-//W3C//DTD SVG 1.1//EN" "http://www.w3.org/Graphics/SVG/1.1/DTD/svg11.dtd">
<svg version="1.1" id="Layer_1" xmlns="http://www.w3.org/2000/svg" xmlns:xlink="http://www.w3.org/1999/xlink" x="0px" y="0px"
	 width="761.962px" height="193.491px" viewBox="0 0 761.962 193.491" enable-background="new 0 0 761.962 193.491"
	 xml:space="preserve">
<g>
	<g>
		<path d="M247.255,116.777V80.368h13.316c7.863,0,12.859,3.274,12.859,10.835c0,7.576-4.996,10.85-12.859,10.85h-6.355v14.725
			H247.255z M254.216,96.398h5.546c5.243,0,6.704-1.96,6.704-5.195c0-3.221-1.461-5.188-6.704-5.188h-5.546V96.398z"/>
		<path d="M315.378,116.777V80.368h14.526c8.268,0,11.601,4.792,11.651,10.796c0.047,4.48-2.221,8.113-6.662,9.373l8.022,16.24
			h-7.715l-6.861-14.825h-6.001v14.825H315.378z M322.339,96.305h5.146c5.441,0,7.108-1.72,7.108-5.142
			c0-3.43-2.068-5.148-5.903-5.148h-6.352V96.305z"/>
		<path d="M398.686,117.283c-9.937,0-15.276-6.814-15.276-18.715s5.34-18.706,15.276-18.706c9.936,0,15.284,6.806,15.284,18.706
			S408.621,117.283,398.686,117.283z M398.686,85.71c-5.693,0-8.319,4.342-8.319,12.857c-0.101,8.525,2.567,12.857,8.319,12.857
			c5.701,0,8.322-4.332,8.322-12.857C407.008,90.052,404.387,85.71,398.686,85.71z"/>
		<path d="M456.273,80.368h12.057c9.633,0,16.283,5.343,16.333,18.2c-0.05,12.857-6.7,18.209-16.333,18.209h-12.057V80.368z
			 M463.231,110.927h4.64c7.964,0,9.836-5.856,9.836-12.359c0-6.502-1.872-12.352-9.836-12.352h-4.64V110.927z"/>
		<path d="M533.934,80.313h8.672l10.337,36.464h-6.911l-2.013-7.871h-11.505l-2.166,7.871h-6.91L533.934,80.313z M534.026,103.158
			h8.471l-4.076-15.828h-0.101L534.026,103.158z"/>
		<path d="M595.298,116.777V80.368h6.957v36.409H595.298z"/>
		<path d="M665.142,90.052c-1.062-2.832-3.229-4.745-6.507-4.745c-3.022,0-5.2,1.213-5.2,4.036c0,6.254,18.769,4.939,18.769,16.738
			c0,7.459-4.689,11.201-12.763,11.201c-5.947,0-11.543-3.33-13.612-8.634l5.747-2.513c1.665,3.43,3.827,5.693,7.914,5.693
			c3.481,0,6.154-1.307,6.154-4.838c0-7.163-18.762-5.748-18.762-16.939c0-6.504,5.449-10.19,11.753-10.19
			c5.853,0,10.69,2.925,12.856,8.222L665.142,90.052z"/>
		<path d="M722.78,80.313h8.668l10.342,36.464h-6.91l-2.02-7.871h-11.496l-2.166,7.871h-6.911L722.78,80.313z M722.877,103.158
			h8.475l-4.087-15.828h-0.102L722.877,103.158z"/>
	</g>
	<g>
		<path fill="#0070BA" d="M23.784,124.749c0,0,2.757,12.048,7.155,21.444c4.398,9.396,8.747,16.653,9.945,17.517
			c1.179,0.855,26.966,10.492,54.119,13.557c25.655,2.893,46.187,6.557,74.463-10.617c11.558-7.023,17.691-18.1,22.549-26.337
			c0,0-41.033,16.817-89.627,9.856C53.791,143.207,23.784,124.749,23.784,124.749z"/>
		<path fill="#0070BA" d="M27.129,74.355c0,0-2.436,5.988-4.01,15.027c-1.486,8.548-0.634,13.985-0.634,13.985
			s31.097,23.039,78.683,28.771c56.254,6.798,85.967-7.81,99.037-14.25c0,0,1.19-5.336,1.09-13.519
			c-0.113-8.408-2.489-15.19-2.489-15.19s-36.312,24.26-88.585,17.858C61.625,101.103,43.789,86.753,27.129,74.355z"/>
		<path fill="#0070BA" d="M67.493,52.841c0,0-3.68,3.422-7.569,9.365c-4.596,7.023-5.568,10.897-5.568,10.897
			s32.225,21.405,75.199,18.752c56.884-3.508,79.211-26.725,82.805-31.656c0.373-0.513-2.416-5.126-7.95-12.001
			c-3.182-3.943-6.584-7.491-6.584-7.491s-20.81,22.525-63.2,26.508C113.43,69.198,84.597,62.657,67.493,52.841z"/>
		<path fill="#0070BA" d="M81.217,42.528c0,0,8.583-10.587,43.502-13.27c4.621-0.351,15.316,0.093,23.837-3.283
			c10.126-4.013,17.021-8.556,17.021-8.556s5.359,1.867,11.539,5.678c5.675,3.485,9.373,7.576,9.373,7.576
			s-17.77,17.337-46.68,20.433C114.569,53.82,96.081,49.045,81.217,42.528z"/>
	</g>
</g>
</svg>
